<svg width="97" height="34" viewBox="0 0 97 34" fill="none" xmlns="http://www.w3.org/2000/svg">
<path fill-rule="evenodd" clip-rule="evenodd" d="M10.2816 17.033C10.208 17.0597 10.1089 17.1092 10.0611 17.1431C10.0025 17.1848 9.74904 17.6465 9.27926 18.5673C8.89693 19.3168 8.30732 20.4538 7.969 21.0939C6.01646 24.7889 5.31091 26.4282 5.05547 27.8635C4.9886 28.2391 4.9809 28.9548 5.0394 29.3605C5.29487 31.1334 6.42012 32.65 8.08606 33.4668C8.81514 33.8242 9.61096 34 10.5 34C11.2144 34 11.7677 33.9063 12.4223 33.6746C13.5206 33.2858 14.5441 32.4646 15.1756 31.4656C15.5876 30.814 15.8542 30.0991 15.9606 29.3605C16.0191 28.9548 16.0114 28.2391 15.9445 27.8635C15.6798 26.3763 14.976 24.7687 12.7184 20.4948C12.3705 19.8361 11.867 18.8588 11.5996 18.3231C11.3322 17.7873 11.081 17.3042 11.0412 17.2495C10.8933 17.0457 10.5311 16.9425 10.2816 17.033Z" fill="#003274"/>
<path fill-rule="evenodd" clip-rule="evenodd" d="M10.1227 1.05825C9.9957 1.10533 9.82438 1.19274 9.74198 1.25256C9.64071 1.32606 9.20289 2.14085 8.39145 3.76591C7.73106 5.08845 6.71264 7.09487 6.12827 8.22461C2.75571 14.7452 1.53703 17.638 1.09581 20.1708C0.98031 20.8337 0.967014 22.0966 1.06805 22.8126C1.50932 25.9413 3.45293 28.6176 6.33046 30.059C7.58979 30.6897 8.96439 31 10.5 31C11.734 31 12.6897 30.8347 13.8203 30.4258C15.7174 29.7396 17.4852 28.2905 18.576 26.5276C19.2877 25.3777 19.7481 24.1161 19.9319 22.8126C20.033 22.0966 20.0197 20.8337 19.9042 20.1708C19.447 17.5464 18.2312 14.7094 14.3318 7.16731C13.7308 6.00492 12.8612 4.2803 12.3993 3.33483C11.9375 2.38936 11.5035 1.53682 11.4348 1.44025C11.1794 1.08067 10.5538 0.898564 10.1227 1.05825Z" stroke="#003274" stroke-width="2"/>
<path d="M45.8816 8.97784C45.1712 10.1579 43.681 11.0886 41.5671 11.0886C38.7774 11.0388 37.3392 9.26039 37.3392 7C37.3392 4.55679 38.968 2.91136 41.6191 2.91136C43.4385 2.91136 44.9113 3.90859 45.639 4.93906V2.04709C44.9286 1.5651 43.5251 1 41.6191 1C37.5991 1 35 3.47645 35 6.98338C35 10.7396 37.6338 12.9834 41.5844 13C43.681 13 45.2752 12.2355 45.8816 11.5374V8.97784Z" fill="#003274"/>
<path d="M54.3206 12.8172L59.2416 1.18283H57.041L53.281 10.2576L49.5036 1.18283H47.1817L52.172 12.8172H54.3206Z" fill="#003274"/>
<path d="M65.6134 6.98338C65.6134 10.7562 68.2125 13 72.1112 13C76.0618 13 78.6089 10.5235 78.6089 7.01662C78.6089 3.26039 76.0098 1.01662 72.1112 1C68.1605 1 65.6134 3.47645 65.6134 6.98338ZM67.9006 7C67.9006 4.57341 69.4947 2.92798 72.0938 2.91136C74.8662 2.92798 76.3217 4.72299 76.3217 7C76.3217 9.44321 74.7103 11.0886 72.1285 11.0886C69.3561 11.072 67.9006 9.27701 67.9006 7Z" fill="#003274"/>
<path d="M83.5655 1.18283H81.3996V12.8172H83.5655V1.18283Z" fill="#003274"/>
<path d="M89.4156 1.18283H87.2496V12.8172H96V10.9058H89.4156V1.18283Z" fill="#003274"/>
<path d="M43.6903 22.9224V20.0471C42.988 19.5485 41.566 19.0166 39.6699 19C36.7381 19 35 20.2133 35 22.2742C35 26.928 42.04 25.1163 42.04 27.5762C42.04 28.5235 41.2324 29.0886 39.5119 29.0886C37.3525 29.0886 35.7549 28.1579 35 26.9778V29.5374C35.6496 30.2355 37.3525 31 39.4944 31C42.7949 31 44.2872 29.4377 44.2872 27.4765C44.2872 22.9391 37.2296 24.6343 37.2296 22.2244C37.2296 21.4266 37.9494 20.928 39.6699 20.9114C41.4782 20.8947 42.9705 21.892 43.6903 22.9224Z" fill="#003274"/>
<path d="M51.4757 27.1939C55.0747 27.1939 57.0059 25.831 57.0059 23.1219C57.0059 20.4958 55.3556 19.1828 51.4757 19.1828H47.3851V30.8172H49.5796V27.1939H51.4757ZM51.6688 21.0942C53.8107 21.0942 54.7236 21.6427 54.7236 23.072C54.7236 24.651 53.6702 25.2825 51.6337 25.2825H49.5796V21.0942H51.6688Z" fill="#003274"/>
<path d="M62.1418 19.1828H59.9473V30.8172H62.1418V19.1828Z" fill="#003274"/>
<path d="M68.0691 19.1828H65.8746V30.8172H74.7404V28.9058H68.0691V19.1828Z" fill="#003274"/>
<path d="M79.3797 19.1828H77.1852V30.8172H86.051V28.9058H79.3797V19.1828Z" fill="#003274"/>
<path d="M96.4031 22.9224V20.0471C95.7008 19.5485 94.2788 19.0166 92.3827 19C89.4509 19 87.7128 20.2133 87.7128 22.2742C87.7128 26.928 94.7528 25.1163 94.7528 27.5762C94.7528 28.5235 93.9452 29.0886 92.2247 29.0886C90.0653 29.0886 88.4677 28.1579 87.7128 26.9778V29.5374C88.3624 30.2355 90.0653 31 92.2072 31C95.5077 31 97 29.4377 97 27.4765C97 22.9391 89.9425 24.6343 89.9425 22.2244C89.9425 21.4266 90.6622 20.928 92.3827 20.9114C94.191 20.8947 95.6833 21.892 96.4031 22.9224Z" fill="#003274"/>
</svg>
